HIERARCHY
ROOT Hips
{
	OFFSET 0.000000 0.000000 0.000000
	CHANNELS 6 Xposition Yposition Zposition Xrotation Yrotation Zrotation
	JOINT Spine
	{
		OFFSET 0.000000 0.042231 0.063346
		CHANNELS 3 Xrotation Yrotation Zrotation
		JOINT Spine1
		{
			OFFSET 0.000000 0.014667 0.083179
			CHANNELS 3 Xrotation Yrotation Zrotation
			JOINT Spine2
			{
				OFFSET 0.000000 0.007361 0.084141
				CHANNELS 3 Xrotation Yrotation Zrotation
				JOINT Spine3
				{
					OFFSET 0.000000 0.000000 0.084462
					CHANNELS 3 Xrotation Yrotation Zrotation
					JOINT Neck
					{
						OFFSET 0.000000 -0.031673 0.221713
						CHANNELS 3 Xrotation Yrotation Zrotation
						JOINT Head
						{
							OFFSET 0.000000 -0.020167 0.114371
							CHANNELS 3 Xrotation Yrotation Zrotation
							End Site
							{
								OFFSET 0.000000 0.000000 0.000000
							}
						}
					}
					JOINT RightShoulder
					{
						OFFSET -0.029161 -0.048602 0.157471
						CHANNELS 3 Xrotation Yrotation Zrotation
						JOINT RightArm
						{
							OFFSET -0.144834 0.000000 0.000000
							CHANNELS 3 Xrotation Yrotation Zrotation
							JOINT RightForeArm
							{
								OFFSET -0.274949 0.000000 0.000000
								CHANNELS 3 Xrotation Yrotation Zrotation
								JOINT RightHand
								{
									OFFSET -0.254725 0.000000 0.000000
									CHANNELS 3 Xrotation Yrotation Zrotation
									JOINT RightHandEnd
									{
										OFFSET -0.068160 0.000000 0.000000
										CHANNELS 3 Xrotation Yrotation Zrotation
										End Site
										{
											OFFSET 0.000000 0.000000 0.000000
										}
									}
									JOINT RightHandThumb1
									{
										OFFSET -0.027264 -0.045440 -0.018176
										CHANNELS 3 Xrotation Yrotation Zrotation
										End Site
										{
											OFFSET 0.000000 0.000000 0.000000
										}
									}
								}
							}
						}
					}
					JOINT LeftShoulder
					{
						OFFSET 0.029161 -0.048602 0.157471
						CHANNELS 3 Xrotation Yrotation Zrotation
						JOINT LeftArm
						{
							OFFSET 0.144834 0.000000 0.000000
							CHANNELS 3 Xrotation Yrotation Zrotation
							JOINT LeftForeArm
							{
								OFFSET 0.274949 0.000000 0.000000
								CHANNELS 3 Xrotation Yrotation Zrotation
								JOINT LeftHand
								{
									OFFSET 0.254725 0.000000 0.000000
									CHANNELS 3 Xrotation Yrotation Zrotation
									JOINT LeftHandEnd
									{
										OFFSET 0.068160 0.000000 0.000000
										CHANNELS 3 Xrotation Yrotation Zrotation
										End Site
										{
											OFFSET 0.000000 0.000000 0.000000
										}
									}
									JOINT LeftHandThumb1
									{
										OFFSET 0.027264 -0.045440 -0.018176
										CHANNELS 3 Xrotation Yrotation Zrotation
										End Site
										{
											OFFSET 0.000000 0.000000 0.000000
										}
									}
								}
							}
						}
					}
				}
			}
		}
	}
	JOINT RightUpLeg
	{
		OFFSET -0.086512 0.000000 -0.025273
		CHANNELS 3 Xrotation Yrotation Zrotation
		JOINT RightLeg
		{
			OFFSET 0.000000 0.000000 -0.433119
			CHANNELS 3 Xrotation Yrotation Zrotation
			JOINT RightFoot
			{
				OFFSET 0.000000 0.000000 -0.404688
				CHANNELS 3 Xrotation Yrotation Zrotation
				JOINT RightToeBase
				{
					OFFSET 0.000000 -0.126496 -0.046041
					CHANNELS 3 Xrotation Yrotation Zrotation
					End Site
					{
						OFFSET 0.000000 0.000000 0.000000
					}
				}
			}
		}
	}
	JOINT LeftUpLeg
	{
		OFFSET 0.086512 0.000000 -0.025273
		CHANNELS 3 Xrotation Yrotation Zrotation
		JOINT LeftLeg
		{
			OFFSET 0.000000 0.000000 -0.433119
			CHANNELS 3 Xrotation Yrotation Zrotation
			JOINT LeftFoot
			{
				OFFSET 0.000000 0.000000 -0.404688
				CHANNELS 3 Xrotation Yrotation Zrotation
				JOINT LeftToeBase
				{
					OFFSET 0.000000 -0.126496 -0.046041
					CHANNELS 3 Xrotation Yrotation Zrotation
					End Site
					{
						OFFSET 0.000000 0.000000 0.000000
					}
				}
			}
		}
	}
}
MOTION
Frames: 14
Frame Time: 0.033333
0.167610 -2.324725 0.892129 -2.856900 1.251400 -176.656000 1.850200 1.059500 -0.219700 2.107000 -0.217500 0.064000 2.943000 -0.683600 1.057800 0.469000 -0.293700 0.599900 -4.240000 1.294200 1.967300 -5.579500 3.672600 2.150600 7.289900 -5.782000 5.793900 15.984300 -52.225700 29.740200 0.000000 0.000100 74.122800 -31.903100 23.833100 -5.792600 0.000000 0.000000 0.000000 0.000000 0.000000 0.000000 11.507400 3.123200 -8.454900 24.466400 42.951600 -42.437200 0.000000 -0.000100 -69.037500 -28.486500 -14.993600 -1.090300 0.000000 0.000000 0.000000 0.000000 0.000000 0.000000 -8.745000 8.534500 -37.083900 5.961400 0.000000 0.000000 -4.715200 -5.404200 -10.042100 4.489400 0.000000 0.000000 -8.399300 0.806600 22.317900 5.215000 0.000000 0.000000 -6.565600 13.646700 18.322400 -0.906000 0.000000 0.000000 
0.165778 -2.317565 0.892790 -2.536800 1.373000 -177.641500 1.209400 1.096500 -0.201700 1.610800 -0.229400 0.066100 2.803400 -0.631800 1.075300 0.377300 -0.273600 0.556000 -4.254000 1.299800 2.070100 -5.309300 3.692800 2.179400 7.606200 -6.086900 5.030800 17.526900 -52.690600 30.090600 0.000000 0.000100 74.937300 -32.817000 24.670600 -5.118900 0.000000 0.000000 0.000000 0.000000 0.000000 0.000000 12.221100 3.342200 -7.555100 26.226400 43.374800 -43.007400 0.000000 -0.000100 -69.902000 -28.958000 -15.676300 -1.890400 0.000000 0.000000 0.000000 0.000000 0.000000 0.000000 -7.635500 8.374200 -38.774400 4.808300 0.000000 0.000000 -4.070100 -6.024700 -7.658400 4.303500 0.000000 0.000000 -6.817000 1.109300 24.712400 3.783300 0.000000 0.000000 -6.127600 13.902500 16.838300 -0.947200 0.000000 0.000000 
0.163853 -2.310757 0.893199 -2.272700 1.463300 -178.710600 0.579700 1.103700 -0.172000 1.085300 -0.252100 0.070900 2.702200 -0.577200 1.109900 0.295700 -0.251700 0.515100 -4.214000 1.336500 2.153100 -4.983100 3.682300 2.120800 7.798400 -6.375100 4.332000 18.896200 -53.071600 30.191500 0.000000 0.000100 75.558500 -32.601900 24.001800 -4.869900 0.000000 0.000000 0.000000 0.000000 0.000000 0.000000 12.848500 3.547600 -6.728100 28.070400 43.667300 -43.746300 0.000000 -0.000100 -70.572200 -29.277600 -16.310200 -2.374100 0.000000 0.000000 0.000000 0.000000 0.000000 0.000000 -6.681200 8.219500 -40.379900 3.747200 0.000000 0.000000 -3.396900 -6.764200 -5.233900 4.169600 0.000000 0.000000 -5.343200 1.459900 27.172500 2.365200 0.000000 0.000000 -5.664500 14.186500 15.328100 -0.983700 0.000000 0.000000 
0.161750 -2.304476 0.893326 -2.072000 1.523800 -179.809200 -0.050800 1.085000 -0.132100 0.550500 -0.281500 0.072800 2.671400 -0.527600 1.136500 0.232700 -0.228200 0.473400 -4.200000 1.387600 2.193200 -4.550700 3.619900 1.985900 7.943100 -6.696900 3.704200 20.210700 -53.099300 30.318300 0.000000 0.000100 75.968700 -32.465000 23.324400 -4.610500 0.000000 0.000000 0.000000 0.000000 0.000000 0.000000 13.333300 3.806500 -6.070600 29.927800 43.651300 -44.587300 0.000000 -0.000100 -70.971600 -29.527700 -16.924800 -2.520100 0.000000 0.000000 0.000000 0.000000 0.000000 0.000000 -5.925400 8.094100 -41.731000 2.844700 0.000000 0.000000 -2.746200 -7.432300 -2.929300 4.109700 0.000000 0.000000 -4.056000 1.845200 29.306100 1.076600 0.000000 0.000000 -5.356100 14.435500 14.206800 -0.990300 0.000000 0.000000 
0.159476 -2.298461 0.893254 -1.797700 1.563600 179.052300 -0.618700 1.070000 -0.088400 0.041200 -0.311400 0.073400 2.774500 -0.497100 1.122700 0.183000 -0.199400 0.429800 -4.234300 1.424900 2.161700 -4.011400 3.461000 1.815900 8.081900 -7.136400 3.185100 21.340400 -52.704800 30.530400 0.000000 0.000100 76.030300 -32.693800 23.108600 -4.163400 0.000000 0.000000 0.000000 0.000000 0.000000 0.000000 13.676900 4.178400 -5.618400 31.534200 43.373000 -45.316600 0.000000 -0.000100 -71.015900 -30.088500 -17.354400 -2.545600 0.000000 0.000000 0.000000 0.000000 0.000000 0.000000 -5.208800 8.000800 -42.639800 2.101000 0.000000 0.000000 -2.141600 -8.006700 -1.063900 3.904500 0.000000 0.000000 -2.783900 2.254700 30.822200 -0.093800 0.000000 0.000000 -5.302000 14.636100 13.798000 -0.989900 0.000000 0.000000 
0.156990 -2.292452 0.893059 -1.315900 1.613800 177.777700 -1.044200 1.058000 -0.066900 -0.368400 -0.315400 0.076900 2.998900 -0.458900 1.123900 0.146500 -0.167100 0.402800 -4.291800 1.443200 2.029400 -3.489100 3.182700 1.582700 8.131800 -7.693500 2.795200 22.125000 -52.084700 30.668500 0.000000 0.000100 75.690500 -32.906400 22.803400 -3.657700 0.000000 0.000000 0.000000 0.000000 0.000000 0.000000 13.879300 4.637200 -5.318700 32.763900 42.994500 -45.866100 0.000000 -0.000100 -70.700500 -31.232300 -17.503800 -2.763900 0.000000 0.000000 0.000000 0.000000 0.000000 0.000000 -4.422700 8.020700 -42.639100 1.627500 0.000000 0.000000 -1.765700 -8.536700 -0.001500 3.536500 0.000000 0.000000 -1.328100 2.724200 31.722000 -1.215100 0.000000 0.000000 -5.460600 14.861000 14.125000 -0.972600 0.000000 0.000000 
0.154135 -2.286612 0.892769 -0.648600 1.680400 176.357800 -1.292200 1.017900 -0.112500 -0.625300 -0.272000 0.087300 3.257400 -0.393600 1.194700 0.125200 -0.141500 0.399500 -4.393900 1.453900 1.791400 -3.102000 2.841500 1.187900 8.059300 -8.264200 2.520600 22.532500 -51.490100 30.640700 0.000000 0.000100 75.100300 -32.907100 22.159400 -3.254800 0.000000 0.000000 0.000000 0.000000 0.000000 0.000000 13.952800 5.046700 -5.135700 33.763800 42.638000 -46.375600 0.000000 -0.000100 -70.171600 -32.331200 -17.507600 -2.977800 0.000000 0.000000 0.000000 0.000000 0.000000 0.000000 -3.663600 8.242400 -41.597700 1.583800 0.000000 0.000000 -1.803200 -8.893100 0.338100 3.359300 0.000000 0.000000 0.253200 3.263500 32.237600 -2.230200 0.000000 0.000000 -5.777300 15.100500 14.957400 -0.919100 0.000000 0.000000 
0.150749 -2.281301 0.892404 0.078000 1.739300 174.950700 -1.387100 0.960100 -0.239600 -0.727300 -0.206800 0.097600 3.474300 -0.334400 1.246200 0.115700 -0.119400 0.399000 -4.596600 1.455300 1.444500 -2.860100 2.528100 0.608700 7.944600 -8.722900 2.335500 22.639000 -51.061500 30.559400 0.000000 0.000100 74.408000 -32.694200 21.465400 -3.017900 0.000000 0.000000 0.000000 0.000000 0.000000 0.000000 13.956200 5.261800 -5.105500 34.683700 42.355000 -46.961400 0.000000 -0.000100 -69.610900 -32.355900 -17.513100 -2.633900 0.000000 0.000000 0.000000 0.000000 0.000000 0.000000 -3.096200 8.663600 -40.030000 2.016500 0.000000 0.000000 -2.176300 -8.951100 0.250300 3.526200 0.000000 0.000000 1.720100 3.826300 32.675000 -2.972700 0.000000 0.000000 -6.220800 15.203300 15.908400 -0.881600 0.000000 0.000000 
0.146665 -2.276792 0.891911 0.705100 1.857700 173.668800 -1.387800 0.956700 -0.442000 -0.704600 -0.098100 0.093600 3.544400 -0.322300 1.165100 0.118800 -0.103200 0.386500 -4.841000 1.426300 1.001400 -2.752200 2.273600 -0.047300 7.865500 -9.004000 2.243600 22.580200 -50.807400 30.584800 0.000000 0.000100 73.609200 -32.260400 20.844800 -2.948800 0.000000 0.000000 0.000000 0.000000 0.000000 0.000000 13.982700 5.228700 -5.228200 35.463200 42.190200 -47.585500 0.000000 -0.000100 -69.071100 -31.273800 -17.442600 -1.717700 0.000000 0.000000 0.000000 0.000000 0.000000 0.000000 -2.929300 9.352700 -38.117300 3.011400 0.000000 0.000000 -2.854600 -8.857500 -0.459100 3.737400 0.000000 0.000000 2.845900 4.452100 33.223800 -3.374500 0.000000 0.000000 -6.703800 15.112200 16.638700 -0.900500 0.000000 0.000000 
0.141905 -2.273285 0.891068 1.168900 2.224900 172.340500 -1.261800 1.093700 -0.739800 -0.592600 0.134700 0.104900 3.325600 -0.289300 1.058300 0.132600 -0.101400 0.392400 -4.974800 1.312200 0.469300 -2.811100 2.026700 -0.637600 7.819000 -9.121400 2.217700 22.512300 -50.695200 30.788800 0.000000 0.000100 72.715100 -31.775400 20.096500 -2.981400 0.000000 0.000000 0.000000 0.000000 0.000000 0.000000 14.064100 4.889400 -5.427900 36.015300 42.221600 -48.180800 0.000000 -0.000100 -68.569800 -30.389800 -17.257400 -1.002800 0.000000 0.000000 0.000000 0.000000 0.000000 0.000000 -3.510800 10.544300 -34.647900 5.014600 0.000000 0.000000 -4.355600 -8.660000 -2.617800 3.962300 0.000000 0.000000 3.575900 5.331000 33.949400 -3.541600 0.000000 0.000000 -7.152000 14.958200 17.129000 -0.914100 0.000000 0.000000 
0.136667 -2.271367 0.889478 1.305900 3.121100 170.635200 -1.149200 1.482300 -1.024200 -0.476000 0.570500 0.137500 2.852600 -0.059800 1.121900 0.140300 -0.167300 0.484200 -4.984600 1.076500 -0.124100 -3.001600 1.727300 -1.117100 7.746700 -9.195000 2.192400 22.470300 -50.650900 31.089400 0.000000 0.000100 71.954900 -31.486500 19.208200 -3.079900 0.000000 0.000000 0.000000 0.000000 0.000000 0.000000 14.157900 4.215300 -5.656800 36.294500 42.406700 -48.658100 0.000000 -0.000100 -68.268600 -30.522600 -17.186600 -0.916800 0.000000 0.000000 0.000000 0.000000 0.000000 0.000000 -5.694900 12.392600 -28.175900 8.797400 0.000000 0.000000 -7.214300 -7.826900 -6.786300 4.653100 0.000000 0.000000 3.685800 6.721400 34.896400 -3.579600 0.000000 0.000000 -7.624400 14.766000 17.721200 -0.892100 0.000000 0.000000 
0.131765 -2.270143 0.887075 1.486100 4.432900 168.600900 -0.975700 2.220500 -1.236100 -0.377500 1.073600 0.202400 2.409000 0.329800 1.302200 0.148200 -0.261400 0.609200 -4.898100 0.735500 -0.718400 -3.321200 1.396800 -1.479500 7.688300 -9.280900 2.142300 22.483200 -50.663400 31.525900 0.000000 0.000100 71.560100 -31.424300 18.531300 -3.199500 0.000000 0.000000 0.000000 0.000000 0.000000 0.000000 14.190600 3.286400 -5.908100 36.297700 42.587000 -48.829300 0.000000 -0.000100 -68.376400 -31.042800 -17.302700 -0.979800 0.000000 0.000000 0.000000 0.000000 0.000000 0.000000 -9.113900 14.327600 -20.982900 14.040500 0.000000 0.000000 -10.421800 -6.046600 -11.254500 5.593300 0.000000 0.000000 3.661000 8.540000 35.843300 -3.689700 0.000000 0.000000 -8.193500 14.494600 18.712900 -0.927500 0.000000 0.000000 
0.128303 -2.267514 0.884867 2.114700 5.391400 166.731500 -0.756200 2.925200 -1.480900 -0.210500 1.429500 0.245100 2.394900 0.676000 1.278500 0.188700 -0.312200 0.653200 -4.724200 0.424300 -1.167200 -3.630100 1.129100 -1.729500 7.609200 -9.437700 2.132500 22.700100 -50.641600 32.172200 0.000000 0.000100 71.457800 -31.426100 18.278500 -3.255300 0.000000 0.000000 0.000000 0.000000 0.000000 0.000000 14.134400 2.580600 -6.134200 35.915600 42.434800 -48.398400 0.000000 -0.000100 -68.742400 -31.529100 -17.397500 -0.870100 0.000000 0.000000 0.000000 0.000000 0.000000 0.000000 -12.019600 15.515300 -17.083100 19.050400 0.000000 0.000000 -12.410900 -3.816600 -14.553900 5.348200 0.000000 0.000000 4.304300 10.083000 36.253600 -4.078100 0.000000 0.000000 -8.769900 14.326700 20.028500 -1.033100 0.000000 0.000000 
0.127259 -2.262792 0.884179 2.995000 5.272200 165.265900 -0.521900 3.068900 -1.770100 -0.044300 1.503900 0.231700 2.843100 0.769800 0.880100 0.274600 -0.269400 0.551300 -4.416500 0.258700 -1.355600 -3.712200 1.010300 -1.881200 7.448900 -9.682900 2.199200 23.322900 -50.530500 33.076700 0.000000 0.000100 71.359000 -31.355200 18.271900 -3.242000 0.000000 0.000000 0.000000 0.000000 0.000000 0.000000 14.027100 2.508600 -6.233900 35.221400 41.831700 -47.450800 0.000000 -0.000100 -68.853800 -32.434600 -17.309400 -0.942800 0.000000 0.000000 0.000000 0.000000 0.000000 0.000000 -13.552600 15.456900 -17.010200 22.744200 0.000000 0.000000 -13.139600 -2.002100 -17.690500 3.032400 0.000000 0.000000 5.706800 10.554900 36.074200 -4.688600 0.000000 0.000000 -9.263200 14.490200 21.405700 -1.070900 0.000000 0.000000 
